<svg xmlns="http://www.w3.org/2000/svg" viewBox="0 0 24 24" fill="none" stroke="#FFFFFF" stroke-width="1.8" stroke-linecap="round" stroke-linejoin="round">
<circle cx="12" cy="12" r="3"/>
<path d="M12 2.8l1 .4.6 2a7.8 7.8 0 0 1 1.7.7l1.8-1 1.4 1.4-1 1.8c.3.5.5 1.1.7 1.7l2 .6v2l-2 .6a7.8 7.8 0 0 1-.7 1.7l1 1.8-1.4 1.4-1.8-1a7.8 7.8 0 0 1-1.7.7l-.6 2h-2l-.6-2a7.8 7.8 0 0 1-1.7-.7l-1.8 1-1.4-1.4 1-1.8a7.8 7.8 0 0 1-.7-1.7l-2-.6v-2l2-.6a7.8 7.8 0 0 1 .7-1.7l-1-1.8L7 4.9l1.8 1a7.8 7.8 0 0 1 1.7-.7l.6-2z"/>
</svg>