<svg xmlns="http://www.w3.org/2000/svg" viewBox="0 0 24 24" fill="none" stroke="#FFFFFF" stroke-width="1.55" stroke-linecap="round" stroke-linejoin="round">
  <circle cx="12" cy="12" r="2.75"/>
  <path d="M12 3.1h.01l.78 2.05c.62.13 1.22.37 1.77.68l2-.9 1.52 1.52-.9 2c.32.55.55 1.15.68 1.77l2.05.78v2.15l-2.05.78a6.4 6.4 0 0 1-.68 1.77l.9 2-1.52 1.52-2-.9a6.4 6.4 0 0 1-1.77.68L12 20.9h-2.15l-.78-2.05a6.4 6.4 0 0 1-1.77-.68l-2 .9-1.52-1.52.9-2A6.4 6.4 0 0 1 4 13.78l-2.05-.78v-2.15L4 10.07c.13-.62.36-1.22.68-1.77l-.9-2L5.3 4.78l2 .9c.55-.32 1.15-.55 1.77-.68l.78-2.05H12z"/>
</svg>
