<svg xmlns="http://www.w3.org/2000/svg" viewBox="0 0 24 24" fill="none" stroke="#FFFFFF" stroke-width="1.55" stroke-linecap="round" stroke-linejoin="round">
  <circle cx="12" cy="12" r="2.65"/>
  <path d="M12 3.35l.7 1.95c.66.14 1.29.4 1.86.76l1.9-.88 1.5 1.5-.88 1.9c.36.57.62 1.2.76 1.86l1.95.7v2.12l-1.95.7a6.4 6.4 0 0 1-.76 1.86l.88 1.9-1.5 1.5-1.9-.88c-.57.36-1.2.62-1.86.76l-.7 1.95H9.88l-.7-1.95a6.4 6.4 0 0 1-1.86-.76l-1.9.88-1.5-1.5.88-1.9a6.4 6.4 0 0 1-.76-1.86l-1.95-.7v-2.12l1.95-.7c.14-.66.4-1.29.76-1.86l-.88-1.9 1.5-1.5 1.9.88c.57-.36 1.2-.62 1.86-.76l.7-1.95H12z"/>
</svg>
