<svg xmlns="http://www.w3.org/2000/svg" viewBox="0 0 24 24" fill="none" stroke="#FFFFFF" stroke-width="1.55" stroke-linecap="round" stroke-linejoin="round">
  <g transform="translate(-0.25 0)">
    <circle cx="12.25" cy="12" r="2.7"/>
    <path d="M12.25 3.25l.72 2.02c.64.13 1.24.38 1.8.73l1.94-.88 1.52 1.52-.88 1.94c.35.56.6 1.16.73 1.8l2.02.72v2.15l-2.02.72a6.56 6.56 0 0 1-.73 1.8l.88 1.94-1.52 1.52-1.94-.88c-.56.35-1.16.6-1.8.73l-.72 2.02H10.1l-.72-2.02a6.56 6.56 0 0 1-1.8-.73l-1.94.88-1.52-1.52.88-1.94a6.56 6.56 0 0 1-.73-1.8l-2.02-.72V11.1l2.02-.72c.13-.64.38-1.24.73-1.8l-.88-1.94 1.52-1.52 1.94.88c.56-.35 1.16-.6 1.8-.73l.72-2.02h2.15z"/>
  </g>
</svg>
